<svg xmlns="http://www.w3.org/2000/svg" xmlns:xlink="http://www.w3.org/1999/xlink" width="444.707" height="335.952" viewBox="0 0 117.662 88.887"><defs><linearGradient id="a"><stop offset="0" stop-color="#483737"/><stop offset="1" stop-color="#483737" stop-opacity="0"/></linearGradient><linearGradient xlink:href="#a" id="c" x1="254.558" y1="876.042" x2="111.117" y2="916.449" gradientUnits="userSpaceOnUse"/><linearGradient x2="1" gradientUnits="userSpaceOnUse" gradientTransform="matrix(0 -510.29343 -510.29343 0 459.774 665.933)" id="b"><stop offset="0" stop-color="#a3846d"/><stop offset=".452" stop-color="#635042"/><stop offset=".846" stop-color="#362c24"/><stop offset="1" stop-color="#362c24"/></linearGradient><meshgradient id="h" gradientUnits="userSpaceOnUse" x="32.337" y="358.015"><meshrow><meshpatch><stop path="c 172.487,0 344.973,0 517.46,0" stop-color="#fff"/><stop path="c 0,187.023 0,374.047 0,561.07"/><stop path="c -172.487,0 -344.973,0 -517.46,0" stop-color="#fff"/><stop path="c 0,-187.023 0,-374.047 0,-561.07"/></meshpatch></meshrow></meshgradient><clipPath id="m"><path d="M0 800h800V0H0z"/></clipPath><linearGradient xlink:href="#b" id="l" gradientUnits="userSpaceOnUse" gradientTransform="scale(-510.29343 510.29343) rotate(-90 .786 .654)" x2="1"/></defs><g  transform="matrix(.13214 0 0 -.14537 -24.931 109.531)" fill="url(#h)"><g id="aaa" transform="matrix(.93354 0 0 1.07595 516.277 -42.045)" fill="url(#j)"><path d="M-49.275 727.841c-8.477-4.359-15.184-9.166-22.637-19.195-5.963-8.034-9.074-20.129-11.364-31.59-2.297-11.463-4.966-42.618-10.695-55.799-5.65-12.977-13.184-21.492-20.827-35.886-7.559-14.247-8.398-19.412-9.93-21.68-5.228-7.726-15.859 1.05-11.844 25.116 4.012 24.067 9.745 27.51 10.888 44.698 1.146 17.19-1.433 27.506-9.17 41.261-8.814 15.672-17.957 25.89-38.679 36.1-14.386 7.088-25.586 8.106-30.619 8.136 3.638-.5 11.57-2.847 28.33-11.576 27.503-14.323 45.841-48.133 38.107-79.079-6.518-26.06-14.616-39.826-12.323-55.87 2.29-16.045 6.02-23.21 10.602-33.526 4.582-10.315 6.876-25.213 6.876-25.213s-6.876-2.29-18.338 6.304c-11.462 8.594-24.255 31.121-25.402 47.165-1.146 16.044-3.06 26.667-8.214 46.151-5.158 19.484-10.34 22.888-31.326 40.118-17.062 14.011-23.555 40.343-25.485 50.44a606.871 606.871 0 0 1 3.331-17.59c3.816-18.714 7.441-27.608 22.342-41.36 14.9-13.755 18.913-21.1 24.646-36.574 5.73-15.469.29-40.36 2.481-50.376 2.67-12.229 15.85-27.087-3.632-20.208-19.484 6.873-34.386 8.594-50.427 8.594-16.048 0-24.526-2.438-32.664-7.132-8.789-5.068-18.338-18.656-18.338-18.656s12.99 16.782 34.766 19.075c21.778 2.294 64.374-12.229 80.99-24.833 16.616-12.609 49.281-24.038 49.281-24.038s6.351-26.982 9.556-35.63c2.795-7.57 13.94-29.127 13.94-29.127s-10.313 9.158-28.083 21.397c-17.19 11.846-17.954 11.846-34.954 21.582-16.135 9.25-59.784 32.738-108.305 26.242-10.662-1.43-19.864-5.346-29.033 1.53-9.508 7.131-20.247 23.682-20.247 23.682s2.532-7.265 12.605-20.63c10.887-14.446 18.196-14.819 42.976-13.633 38.018 1.82 90.593-25.589 101.43-34.954 13.245-11.443 21.394-8.727 58.452-64.752 0 0-7.454 1.301-29.802 20.21-22.35 18.914-46.988 36.521-68.762 41.103-15.43 3.247-32.393 3.173-44.504 3.098-4.982-.03-9.142-.06-12.039.14-24.834 1.727-41.255 12.987-46.99 19.104-6.429 6.857-7.64 19.632-7.64 19.632s-2.767-10.124 3.056-20.016c7.063-12.004 15.306-19.61 38.59-25.217 11.98-2.885 19.691-2.782 27.33-2.679 8.675.117 17.253.235 31.881-4.029 27.51-8.028 50.04-31.942 69.912-48.706 21.471-18.117 50.807-26.328 49.284-77.709-.752-25.44-9.169-77.933-9.169-77.933l-13.756-62.46h79.651s-13.752 82.516-15.465 115.18c-1.722 32.663-4.102 67.19 13.751 94.55 16.804 25.758 37.638 31.517 52.72 40.113 13.954 7.947 28.082 14.328 39.541 25.214 9.73 9.252 12.796 23.113 28.27 31.138 15.472 8.018 49.088 4.39 49.088 4.39s-7.443 5.542-27.315 4.78c-20.899-.808-32.849-8.79-39.729-15.67-6.878-6.87-8.405-14.12-25.217-24.638-13.707-8.579-24.825-9.74-50.043-22.349-21.724-10.86-40.87-14.898-40.87-14.898 14.517 20.703 17.902 25.887 33.607 53.866 10.511 18.722 18.917 49.852 37.254 57.875 13.098 5.73 18.593 5.613 33.193 5.497 5.841-.046 13.14-.093 22.964.236 34.383 1.146 56.54 9.942 64.562 16.243 8.022 6.308 15.09 13.556 21.968 25.015 6.874 11.461 17.76 28.652 24.64 33.238 5.45 3.632 9.82 4.744 11.4 5.05-2.766-.488-13.889-2.796-20.377-9.28-7.452-7.452-19.87-26.36-33.428-37.602-10.844-8.995-21.969-14.735-29.796-16.045-23.857-4-34.795-3.226-50.999-3.44-16.052-.216-44.127.576-52.728-4.582-8.593-5.158-19.864-18.193-26.932-33.24-5.555-11.834-7.638-17.57-17.758-33.235-11.886-18.392-30.377-40.687-30.377-40.687s-4.579 10.315 6.31 27.507c10.886 17.191 17.954 30.783 20.82 50.263 0 0 11.646 51.216 32.848 68.407 21.202 17.192 37.06 21.2 50.81 35.53 13.76 14.322 22.352 26.931 28.653 44.697 6.31 17.762 2.106 52.097 2.106 52.097s.766-36.437-6.685-52.48c-7.45-16.045-19.676-31.186-36.87-43.794-17.188-12.605-33.899-17.57-47.563-30.943-10.699-10.467-14.324-15.473-23.496-37.25-9.165-21.774-8.21-24.826-14.707-43.932-4.874-14.344-5.352-18.735-13.373-28.269-8.189-9.736-23.574-1.826-31.518 22.35-8.116 24.71-25.72 39.184-.09 87.17 13.466 25.217 17.575 26.266 25.117 53.415 5.652 20.34.404 45.898 4.965 61.197 4.874 16.33 18.054 29.312 28.651 33.807 9.55 4.055 19.872 4.514 19.872 4.514s-.974.065-2.59.065c-4.484 0-13.92-.502-21.289-4.292m-157.779-8.956s1.018.128 2.902.117a11.26 11.26 0 0 1-1.52.117c-1.078 0-1.382-.234-1.382-.234m-34.27-14.97c-.453 2.602-.688 4.083-.688 4.083s.196-1.517.687-4.083m432.474-98.022c.41.072.636.105.636.105s-.222-.025-.636-.105" fill="url(#l)"/><path d="M595.655 507.042c-3.97-5.186-7.285-4.46-9.982-11.498-2.207-5.733.694-10.388 4.492-11.78 4.607-1.671 10.293.127 12.341 9.852 2.04 9.744-4.319 22.497-4.319 22.497s1.426-3.87-2.532-9.071m-127.448 38.064c-3.97-5.186-7.285-4.459-9.982-11.498-2.207-5.733.694-10.388 4.492-11.78 4.607-1.67 10.293.127 12.341 9.852 2.04 9.744-4.319 22.497-4.319 22.497s1.426-3.87-2.532-9.07" fill="maroon"/></g><path d="M249.577 538.17c.006 0 1.979-2.58 5.316-6.178 3.299-3.617 7.849-8.348 11.68-13.459 3.801-5.067 6.666-10.789 6.55-14.796.072-3.987-1.555-6.077-1.4-6.12l6.854-2.936.698 2.687c.278.835.333 1.905.38 3.136.133 1.225-.032 2.574-.293 4.018-.908 5.927-5.32 11.751-9.987 16.46-4.752 4.74-9.917 8.753-13.686 11.857-3.792 3.065-6.105 5.33-6.112 5.331m453.66 62.286c-9.156-.162-11.775-4.99-11.052-9.45.601-3.683 4.296-7.112 9.867-6.113 6.836 1.215 6.749 4.347 12.138 7.031 5.389 2.676 8.644.723 8.644.723s-10.23 7.812-19.33 7.811c-.089 0-.178 0-.267-.002m14.743 17.104c-8.406-4.68-8.442-10.456-5.562-14.225 2.387-3.114 7.508-4.463 12.166-.789 5.731 4.526 4.109 7.38 7.769 12.533 3.661 5.147 7.655 4.948 7.655 4.948s-3.213.522-7.483.522c-4.518 0-10.22-.585-14.545-2.989m-26.989 7.333s2.633.13 5.057-3.267c2.416-3.407 1.346-5.295 5.128-8.282 3.083-2.428 6.467-1.537 8.036.52 1.911 2.49 1.882 6.304-3.666 9.397-2.858 1.59-6.629 1.975-9.616 1.975-2.818 0-4.939-.343-4.939-.343m34.874 11.685c-4.976-2.19-7.068-.256-11.907-4.348-3.935-3.323-3.762-7.985-1.605-10.615 2.611-3.193 7.443-4.236 12.919 2.126 5.461 6.37 6.149 18.497 6.149 18.497s-.579-3.467-5.556-5.66m-58.702-48.756c1.223-9.54 6.576-11.715 11.141-10.438 3.782 1.056 6.93 5.317 5.251 11.006-2.075 7-5.331 6.551-8.753 11.868-3.428 5.305-1.758 8.933-1.758 8.933s-7.104-11.82-5.881-21.369m-9.917-9.432c-4.927-4.012-6.909-12.906-6.909-12.906s.861 2.493 4.912 3.48c1.603.388 2.785.36 3.886.33 1.684-.045 3.178-.089 5.699 1.366 3.407 1.957 3.834 5.43 2.503 7.657-.887 1.487-2.368 2.577-4.349 2.577-1.603 0-3.533-.712-5.742-2.504m-4.825 23.81c.195-5.437-2.38-6.652-.377-12.667 1.628-4.887 6.02-6.463 9.268-5.425 3.927 1.24 6.691 5.342 2.813 12.778-3.891 7.437-14.895 12.58-14.895 12.58s3.003-1.823 3.191-7.267m-19.308-54.958c-1.722-2.467-1.504-6.528 2.265-9.072 4.644-3.124 6.352-1.272 10.973-2.74 4.609-1.47 5.39-4.428 5.39-4.428s-1.562 10.453-6.945 15.503c-2.594 2.43-4.918 3.381-6.864 3.381-2.091 0-3.743-1.1-4.819-2.644m9.527 16.226c-1.923-2.562-3.551-2.22-4.846-5.679-1.057-2.822.383-5.078 2.257-5.75 2.264-.81 5.042.108 6.004 4.881.955 4.771-2.207 11.003-2.207 11.003s.709-1.899-1.208-4.455m3.798-11.911c-1.714-2.65-1.345-6.424 4.58-8.93 5.924-2.499 14.937-.174 14.937-.174s-2.669-.384-5.433 2.741c-2.763 3.122-1.836 5.1-5.953 7.668-1.219.765-2.438 1.091-3.566 1.091-1.97 0-3.658-.997-4.565-2.396m-38.527 2.376c-2.965-6.695-.34-10.218 3.132-11.19 2.879-.804 6.612.73 7.762 5.092 1.403 5.382-.89 6.373-1.02 11.183-.138 4.803 2.38 6.507 2.38 6.507s-9.288-4.893-12.254-11.592m-10.171-2.236c-4.789-.665-9.599-5.67-9.599-5.67s1.548 1.28 4.572.332c3.03-.965 3.247-2.604 6.908-2.683 2.987-.066 4.637 2.025 4.659 4 .006 2.102-1.357 4.14-4.95 4.14-.488 0-1.017-.038-1.59-.119m6.235 17.409c-2.01-3.606-4.174-3.393-5.237-8.09-.868-3.83 1.375-6.583 3.892-7.192 3.053-.745 6.466.835 6.88 7.206.397 6.38-4.739 14.066-4.739 14.066s1.23-2.37-.796-5.99m-40.936-17.914c-2.25-5.097-.253-7.769 2.38-8.504 2.185-.619 5.027.553 5.904 3.866 1.062 4.091-.682 4.84-.775 8.504-.102 3.65 1.809 4.937 1.809 4.937s-7.068-3.715-9.318-8.803m-7.726-1.7c-3.638-.507-7.299-4.319-7.299-4.319s1.179.98 3.48.26c2.3-.734 2.467-1.979 5.252-2.04 2.272-.05 3.523 1.537 3.537 3.04.007 1.598-1.038 3.147-3.769 3.147-.369 0-.769-.028-1.201-.088m4.739 13.23c-1.534-2.745-3.176-2.582-3.979-6.148-.666-2.912 1.041-5.006 2.958-5.47 2.316-.568 4.912.63 5.216 5.477.304 4.846-3.595 10.691-3.595 10.691s.941-1.805-.6-4.55m-28.061-19.694c-2.025-4.582-.232-6.984 2.142-7.646 1.974-.55 4.521.495 5.31 3.476.955 3.678-.608 4.354-.702 7.647-.087 3.28 1.627 4.437 1.627 4.437s-6.351-3.339-8.377-7.914m-6.944-1.527c-3.277-.459-6.562-3.88-6.562-3.88s1.064.875 3.133.231c2.061-.662 2.214-1.779 4.717-1.833 2.039-.048 3.161 1.381 3.183 2.73.006 1.441-.932 2.831-3.392 2.831-.332 0-.691-.025-1.079-.079m4.261 11.893c-1.382-2.47-2.85-2.318-3.581-5.53-.593-2.615.94-4.5 2.662-4.912 2.084-.51 4.413.572 4.702 4.92.268 4.361-3.24 9.613-3.24 9.613s.838-1.62-.543-4.09m-29.977-36.011c.353-6.01 3.595-7.59 6.495-6.995 2.409.49 4.558 3.013 3.755 6.631-.998 4.456-3.046 4.318-4.948 7.783-1.896 3.464-.702 5.65-.702 5.65s-4.94-7.069-4.6-13.069m-6.583-5.458c-3.248-2.286-4.882-7.75-4.882-7.75s.649 1.52 3.218 1.967c1.001.168 1.73.101 2.406.035 1.063-.103 1.998-.207 3.656.598 2.206 1.078 2.618 3.223 1.889 4.665-.519 1.034-1.479 1.811-2.84 1.811-.955 0-2.108-.382-3.447-1.326m-1.983 15.058c-.122-3.393-1.772-4.044-.787-7.878.803-3.118 3.471-4.293 5.547-3.787 2.511.601 4.399 3.032 2.308 7.841-2.104 4.807-8.738 8.496-8.738 8.496s1.787-1.269 1.67-4.672m48.489 1.041c-.448-5.986 2.192-6.608 3.262-11.7 1.071-5.086-1.279-7.379-1.279-7.379s8.941 7.01 10.792 14.692c1.845 7.718-1.634 10.948-5.519 11.307-.18.016-.36.025-.541.025-3.064 0-6.367-2.359-6.715-6.945m19.575 8.157c-3.183-.518-4.528-3.07-4.159-5.166.44-2.554 2.763-4.658 7.74-3.013 4.97 1.643 9.1 7.921 9.1 7.921s-1.396-1.677-4.811-1.258c-2.885.365-3.718 1.65-6.301 1.65a10 10 0 0 1-1.569-.134m-7.125-20.381c.824-6.873 7.776-14.045 7.776-14.045s-1.772 2.286-.333 6.535c1.447 4.23 3.784 4.41 4 9.618.189 4.24-2.741 6.738-5.533 6.89a6.413 6.413 0 0 1-.392.012c-3.243 0-6.283-2.417-5.518-9.01m32.856 13.946c-.304-4.08 1.49-4.503 2.22-7.968.732-3.465-.875-5.028-.875-5.028s6.091 4.782 7.35 10.008c1.259 5.252-1.114 7.448-3.754 7.697a4.013 4.013 0 0 1-.364.017c-2.091 0-4.345-1.607-4.577-4.726m13.318 5.552c-2.164-.354-3.075-2.09-2.83-3.516.305-1.743 1.889-3.168 5.274-2.054 3.378 1.121 6.192 5.396 6.192 5.396s-.946-1.149-3.269-.86c-1.971.252-2.535 1.125-4.296 1.125a6.96 6.96 0 0 1-1.071-.09m-4.847-13.876c.557-4.68 5.295-9.563 5.295-9.563s-1.201 1.556-.225 4.45c.985 2.878 2.576 3.005 2.72 6.546.131 2.885-1.859 4.586-3.768 4.691a4.652 4.652 0 0 1-.264.007c-2.212.001-4.28-1.639-3.758-6.13m84.39 93.606s2.055.107 3.941-2.547c1.881-2.656 1.043-4.124 4.002-6.453 2.401-1.89 5.033-1.2 6.264.405 1.49 1.942 1.469 4.912-2.857 7.32-2.23 1.242-5.166 1.544-7.492 1.544-2.202 0-3.858-.27-3.858-.27m-260.938 32.824c.625-4.024-1.136-5.206.86-9.463 1.628-3.464 4.975-4.17 7.244-3.063 2.747 1.345 4.395 4.684.905 9.81-3.505 5.127-11.985 7.774-11.985 7.774s2.354-1.027 2.976-5.058m-21.055 2.195s2.355.491 5.011-2.236c2.655-2.72 1.956-4.572 5.783-6.73 3.11-1.755 6.033-.474 7.158 1.595 1.367 2.513.813 5.934-4.619 7.942-1.522.561-3.238.763-4.919.763-4.321 0-8.414-1.334-8.414-1.334m3.266-18.284s2.055 1.256 5.466-.419c3.414-1.682 3.382-3.657 7.704-4.409 3.523-.6 5.849 1.576 6.214 3.914.448 2.82-1.233 5.866-7.017 5.931h-.098c-5.771 0-12.269-5.017-12.269-5.017m37.357 54.474c.847-5.465-1.548-7.067 1.168-12.854 2.203-4.699 6.753-5.66 9.834-4.152 3.724 1.822 5.966 6.358 1.226 13.314-4.759 6.962-16.279 10.56-16.279 10.56s3.208-1.399 4.051-6.868m-38.701 4.239s4.249.886 9.023-4.022c4.789-4.908 3.527-8.243 10.42-12.138 5.618-3.16 10.881-.853 12.914 2.88 2.463 4.527 1.461 10.694-8.33 14.314-2.742 1.011-5.832 1.375-8.859 1.375-7.79 0-15.168-2.409-15.168-2.409m14.547-26.085s2.789 1.7 7.418-.572c4.64-2.278 4.593-4.958 10.465-5.978 4.783-.825 7.934 2.133 8.434 5.31.607 3.83-1.672 7.96-9.528 8.047h-.148c-7.83 0-16.641-6.807-16.641-6.807m45.253 54.428c-2.604-2.423-4.326-1.726-6.424-5.264-1.713-2.868-.593-5.638 1.331-6.742 2.315-1.33 5.542-.885 7.538 4.15 1.997 5.048-.247 12.496-.247 12.496s.413-2.218-2.198-4.64m-10.596 15.9c-.89-4.32-3.121-4.855-2.712-9.936.339-4.13 3.471-6.11 6.19-5.845 3.312.321 6.243 3.084 4.637 9.61-1.614 6.524-9.229 12.435-9.229 12.435s2.008-1.939 1.114-6.265m-7.4-15.068c.459-3.29-.984-4.236.593-7.74 1.287-2.843 4.004-3.458 5.878-2.583 2.257 1.064 3.64 3.77.85 7.986-2.797 4.23-9.693 6.5-9.693 6.5s1.917-.872 2.372-4.163m-3.92-65.921c-3.488-5.122-1.838-8.464.904-9.806 2.271-1.11 5.62-.405 7.244 3.06 1.997 4.257.239 5.44.861 9.465.622 4.03 2.98 5.06 2.98 5.06s-8.485-2.65-11.989-7.78m16.729 5.488c-5.431-2.008-5.983-5.43-4.616-7.944 1.124-2.072 4.052-3.352 7.163-1.598 3.826 2.16 3.125 4.011 5.779 6.735 2.656 2.723 5.005 2.231 5.005 2.231s-4.094 1.337-8.418 1.336c-1.679 0-3.392-.2-4.913-.76m-2.293-13.842c-5.789-.066-7.47-3.11-7.022-5.929.369-2.336 2.691-4.518 6.213-3.914 4.325.754 4.288 2.728 7.703 4.406 3.414 1.675 5.469.42 5.469.42s-6.485 5.018-12.253 5.017h-.11m151.94 61.096c-3.971-5.186-7.285-4.459-9.982-11.498-2.207-5.733.694-10.388 4.492-11.78 4.607-1.67 10.293.127 12.341 9.852 2.04 9.744-4.319 22.497-4.319 22.497s1.426-3.87-2.532-9.07m-17.875 18.514c-.195-6.102-3.124-7.346-1.36-14.168 1.426-5.548 6.149-7.5 9.802-6.502 4.419 1.208 7.755 5.656 4.051 14.163-3.733 8.514-15.465 14.775-15.465 14.775s3.175-2.18 2.972-8.268m-14.902-22.602c1.852-5.812-.47-7.965 3.466-13.802 3.211-4.739 8.312-5.002 11.415-2.836 3.754 2.626 5.418 7.935-.941 14.703-6.365 6.764-19.532 8.728-19.532 8.728s3.734-.992 5.592-6.793m12.964-30.151c-.095-3.128-1.592-3.769-.681-7.27.738-2.85 3.169-3.848 5.035-3.327 2.265.63 3.987 2.915 2.07 7.277-1.932 4.366-7.965 7.56-7.965 7.56s1.634-1.107 1.541-4.24m-15.597 4.623s1.852.04 3.473-2.39c1.62-2.435.831-3.74 3.422-5.907 2.104-1.758 4.484-1.2 5.635.202 1.381 1.711 1.439 4.37-2.38 6.651-2.201 1.316-5.237 1.594-7.414 1.594-1.6 0-2.736-.15-2.736-.15m-.101-14.272s1.729.658 4.066-1.086c2.357-1.742 2.039-3.233 5.208-4.41 2.575-.95 4.63.367 5.238 2.085.729 2.065-.109 4.597-4.464 5.457a9.022 9.022 0 0 1-1.741.16c-3.999 0-8.307-2.206-8.307-2.206m13.73-31.949c-1.331-3.008-.376-6.904 6.033-8.702 6.438-1.79 15.256 1.9 15.256 1.9s-2.647-.789-5.961 2.094c-3.291 2.882-2.654 5.067-7.255 7.197-1.048.485-2.056.698-2.988.698-2.397 0-4.294-1.403-5.085-3.187m19.09 7.976c-3.775-.716-5.288-3.798-4.79-6.279.624-3.017 3.444-5.444 9.304-3.335 5.859 2.108 10.584 9.69 10.584 9.69s-1.599-2.033-5.672-1.628c-3.363.335-4.433 1.767-7.319 1.767-.609 0-1.298-.064-2.107-.215m-5.034 9.432c-1.579-.395-2.742-.37-3.825-.347-1.649.036-3.114.072-5.579-1.364-3.3-1.945-3.705-5.334-2.395-7.519 1.592-2.625 5.071-3.97 9.874-.024 4.818 3.96 6.706 12.69 6.706 12.69s-.818-2.45-4.781-3.436m-65.17-53.443c-1.845-4.15-.537-9.53 8.333-12.018 8.89-2.478 21.072 2.618 21.072 2.618s-3.66-1.088-8.233 2.897c-4.549 3.98-3.674 7.003-10.018 9.947-1.449.67-2.842.961-4.13.961-3.316 0-5.935-1.94-7.024-4.405m26.374 11.017c-5.23-.99-7.314-5.24-6.626-8.673.861-4.166 4.76-7.516 12.862-4.6 8.094 2.908 14.613 13.382 14.613 13.382s-2.208-2.81-7.836-2.246c-4.637.463-6.119 2.435-10.097 2.436-.842 0-1.796-.089-2.916-.299m-6.966 13.036c-2.179-.544-3.783-.51-5.278-.478-2.278.05-4.3.1-7.707-1.888-4.572-2.683-5.122-7.37-3.313-10.387 2.2-3.624 7.01-5.487 13.65-.037 6.648 5.476 9.26 17.54 9.26 17.54s-1.129-3.39-6.612-4.75m-53.929-63.492c-4.384-2.282-6.424-.708-10.561-4.672-3.363-3.233-2.849-7.353-.695-9.523 2.62-2.644 7.104-3.237 11.64 2.774 4.535 6.04 4.276 16.833 4.276 16.833s-.261-3.11-4.66-5.412m-6.301 18.461c-2.097-4.123-4.505-4.036-5.504-9.284-.803-4.275 1.823-7.122 4.644-7.629 3.421-.585 7.14 1.39 7.335 8.428.181 7.038-5.853 15.12-5.853 15.12s1.484-2.519-.622-6.635m-17.497-10.712c-.602-4.594-2.902-5.318-2.077-10.598.687-4.275 4.102-6.098 6.93-5.613 3.422.593 6.272 3.703 4.095 10.387-2.193 6.695-10.606 12.276-10.606 12.276s2.244-1.867 1.658-6.452m44.321 43.214c-1.121-3.675-3.096-3.949-3.146-8.399-.03-3.609 2.531-5.573 4.904-5.555 2.886.014 5.657 2.181 4.789 7.957-.89 5.791-7.01 11.513-7.01 11.513s1.577-1.83.463-5.516m-13.65 6.532c1.143-3.4-.211-4.69 2.155-8.094 1.932-2.767 4.934-2.858 6.749-1.57 2.186 1.584 3.111 4.71-.687 8.644-3.797 3.928-11.553 4.962-11.553 4.962s2.193-.539 3.336-3.942m-8.044-12.926s2.256.224 4.477-2.598c2.221-2.818 1.368-4.485 4.746-6.9 2.741-1.94 5.607-1.042 6.879.795 1.527 2.214 1.346 5.483-3.538 7.913-2.089 1.03-4.68 1.325-6.964 1.325-3.078 0-5.6-.536-5.6-.536m139.765-117.172c-3.386-2.8-4.586-8.049 2.04-14.053 6.634-6.007 19.438-6.86 19.438-6.86s-3.661.646-5.903 6.075c-2.222 5.441-.145 7.698-4.392 12.982-1.944 2.442-4.369 3.455-6.617 3.456-1.725 0-3.344-.596-4.566-1.6m18.186-6.533c-1.071-3.97.868-8.579 9.158-9.564 8.312-.983 18.496 5.29 18.496 5.29s-3.131-1.484-7.768 1.442c-4.652 2.926-4.283 5.768-10.381 7.484a9.442 9.442 0 0 1-2.598.38c-3.618 0-6.187-2.34-6.907-5.032m-3.183 22.576c-5.135-.332-7.66-4.17-7.385-7.566.339-4.102 3.695-7.809 11.834-5.954 8.153 1.867 15.653 11.206 15.653 11.206s-2.473-2.445-7.804-1.259c-4.995 1.123-5.877 3.614-11.083 3.615-.381 0-.784-.014-1.215-.042m-53.451-24.313c-2.633-2.184-3.552-6.256 1.577-10.926 5.165-4.654 15.09-5.32 15.09-5.32s-2.821.514-4.572 4.72c-1.721 4.227-.116 5.971-3.414 10.073-1.513 1.902-3.397 2.69-5.143 2.69-1.336 0-2.591-.462-3.538-1.237m14.121-5.084c-.825-3.078.672-6.655 7.118-7.422 6.445-.756 14.36 4.11 14.36 4.11s-2.439-1.153-6.042 1.12c-3.609 2.28-3.32 4.47-8.058 5.816-.7.2-1.368.29-1.996.29-2.807 0-4.815-1.822-5.382-3.914m-2.475 17.541c-3.985-.267-5.938-3.248-5.728-5.88.252-3.186 2.871-6.07 9.194-4.627 6.322 1.454 12.145 8.703 12.145 8.703s-1.917-1.903-6.062-.974c-3.878.865-4.561 2.81-8.614 2.81-.294 0-.604-.01-.935-.032m-34.05-28.374c-2.01-1.67-2.712-4.77 1.208-8.338 3.936-3.558 11.525-4.065 11.525-4.065s-2.163.387-3.494 3.603c-1.324 3.226-.095 4.561-2.605 7.693-1.155 1.453-2.596 2.055-3.93 2.055a4.264 4.264 0 0 1-2.704-.948m10.787-3.877c-.637-2.355.506-5.086 5.424-5.675 4.927-.576 10.968 3.14 10.968 3.14s-1.86-.876-4.608.856c-2.757 1.736-2.539 3.415-6.149 4.443a5.615 5.615 0 0 1-1.53.222c-2.148 0-3.68-1.39-4.105-2.986m-1.888 13.387c-3.046-.204-4.543-2.475-4.377-4.493.195-2.43 2.191-4.63 7.016-3.527 4.826 1.11 9.275 6.644 9.275 6.644s-1.462-1.45-4.63-.745c-2.964.662-3.483 2.143-6.579 2.143-.222 0-.456-.007-.705-.023m-28.286-30.383c-1.38-1.15-1.858-3.276.833-5.724 2.698-2.439 7.906-2.789 7.906-2.789s-1.483.268-2.394 2.474c-.911 2.213-.065 3.13-1.793 5.28-.796.996-1.784 1.41-2.699 1.41a2.93 2.93 0 0 1-1.853-.65m7.401-2.663c-.434-1.615.355-3.494 3.726-3.895 3.378-.393 7.53 2.16 7.53 2.16s-1.273-.604-3.161.585c-1.896 1.191-1.744 2.344-4.225 3.046a3.79 3.79 0 0 1-1.055.155c-1.473 0-2.52-.957-2.815-2.05m-1.287 9.19c-2.09-.14-3.125-1.699-3.017-3.085.138-1.67 1.512-3.175 4.825-2.423 3.313.763 6.359 4.565 6.359 4.565s-.991-.999-3.169-.51c-2.037.448-2.388 1.47-4.509 1.47-.153 0-.316-.006-.489-.017m2.582 25.645c-1.598-2.406-3.082-2.182-4.059-5.364-.809-2.59.609-4.554 2.33-5.064 2.069-.6 4.529.361 5.151 4.71.608 4.35-2.568 9.786-2.568 9.786s.737-1.664-.854-4.068m-8.42 7.634c.087-2.698-1.165-3.327-.18-6.282.787-2.405 2.929-3.125 4.506-2.576 1.916.655 3.255 2.71 1.367 6.355-1.888 3.647-7.241 6.063-7.241 6.063s1.454-.869 1.548-3.56m-5.903-10.394c.991-2.51.029-3.53 1.931-5.983 1.563-1.993 3.813-1.96 5.115-.914 1.584 1.261 2.156 3.652-.839 6.452-3.009 2.791-8.869 3.266-8.869 3.266s1.678-.326 2.662-2.82m40.083 26.955c-1.737-3.259-3.654-3.15-4.507-7.32-.709-3.389 1.339-5.716 3.588-6.153 2.706-.503 5.715 1.023 5.968 6.626.239 5.613-4.477 12.124-4.477 12.124s1.143-2.018-.572-5.277m-11.653 8.67c.448-3.414-1.072-4.373.542-8.012 1.302-2.962 4.109-3.605 6.048-2.716 2.35 1.074 3.804 3.845.969 8.254-2.865 4.398-9.976 6.8-9.976 6.8s1.967-.919 2.417-4.326m-9.961-10.688s2.17-.214 3.732-3.262c1.577-3.072.478-4.493 3.204-7.369 2.221-2.336 5.086-2.02 6.612-.53 1.852 1.797 2.286 4.914-1.865 8.105-3.884 2.954-10.654 3.057-11.578 3.057h-.105m65.755 14.637c-3.82-3.683-6.387-2.68-9.425-7.994-2.475-4.333-.718-8.412 2.17-9.997 3.479-1.909 8.261-1.168 11.103 6.373 2.83 7.574-.709 18.58-.709 18.58s.673-3.277-3.139-6.962m-12.066 17.039c-.912-4.858-3.407-5.506-2.829-11.18.464-4.63 4.008-6.778 7.054-6.427 3.696.422 6.923 3.573 4.997 10.861-1.944 7.292-10.589 13.745-10.589 13.745s2.278-2.14 1.367-6.999m-14.72-16.294c.781-4.89-1.368-6.326 1.076-11.495 1.997-4.18 6.048-5.02 8.812-3.674 3.327 1.648 5.316 5.707 1.064 11.913-4.29 6.196-14.599 9.39-14.599 9.39s2.865-1.244 3.647-6.134m-26.087 77.054c-1.395-1.837-2.567-1.588-3.507-4.073-.775-2.025.259-3.659 1.598-4.155 1.628-.582 3.639.065 4.348 3.497.709 3.44-1.563 7.935-1.563 7.935s.514-1.367-.876-3.204m-6.329 6.507c-.065-2.152-1.092-2.593-.463-5.003.514-1.953 2.177-2.636 3.465-2.28 1.562.433 2.735 2.006 1.418 5.005-1.331 2.998-5.476 5.19-5.476 5.19s1.12-.764 1.056-2.912m-5.23-7.99c.666-2.05-.152-2.818 1.244-4.869 1.135-1.663 2.937-1.754 4.03-.983 1.315.926 1.901 2.807-.348 5.186-2.256 2.38-6.909 3.05-6.909 3.05s1.318-.344 1.983-2.384m75.731 19.648c-1.156-.094-1.985.048-2.75.19-1.241.231-2.315.462-4.346-.314-2.684-1.02-3.385-3.476-2.69-5.226.86-2.123 3.254-3.526 7.269-1.219 4.007 2.333 6.453 8.514 6.453 8.514s-.889-1.693-3.936-1.946m.86 11.972c-2.184-1.83-3.522-1.208-5.346-3.943-1.475-2.22-.679-4.47.805-5.432 1.794-1.149 4.376-.925 6.178 3.01 1.793 3.95.303 9.975.303 9.975s.238-1.78-1.94-3.61m-12.492-1.874c-1.425-2.456-2.907-2.314-3.704-5.504-.643-2.59.854-4.442 2.576-4.848 2.083-.48 4.441.595 4.81 4.913.361 4.311-3.068 9.497-3.068 9.497s.826-1.605-.614-4.058m-349.751 53.448c-4.427-1.267-8.268-6.623-8.268-6.623s1.273 1.413 4.249.918c2.988-.498 3.397-2.025 6.862-1.605 2.82.332 4.098 2.527 3.848 4.383-.238 1.753-1.492 3.323-4.141 3.323-.739 0-1.586-.122-2.55-.396m-7.773-10.493c-2.676-3.364-2.701-9.52-2.701-9.52s.202 1.772 2.741 2.998c2.535 1.241 3.671.312 6.088 2.5 1.963 1.78 1.738 4.13.541 5.411-.647.696-1.515 1.163-2.518 1.163-1.231 0-2.667-.704-4.151-2.552m10.276-1.614c-1.385-4.064.654-9.88.654-9.88s-.397 1.743 1.566 3.757c1.979 2.015 3.367 1.527 4.898 4.395 1.244 2.333.256 4.474-1.299 5.284a3.702 3.702 0 0 1-1.686.427c-1.52 0-3.121-1.058-4.133-3.983m27.528 12.855c-2.571-1.595-3.888-.723-6.217-3.32-1.899-2.113-1.415-4.605-.005-5.838 1.708-1.48 4.468-1.646 6.96 2.22 2.495 3.871 1.848 10.424 1.848 10.424s-.022-1.898-2.586-3.486m-4.662 10.952c-1.093-2.61-2.561-2.663-2.93-5.899-.304-2.63 1.418-4.25 3.161-4.423 2.105-.215 4.279 1.146 4.091 5.443-.206 4.29-4.243 8.937-4.243 8.937s1.016-1.468-.079-4.058m-10.167-7.305c-.163-2.819-1.53-3.365-.785-6.536.6-2.573 2.759-3.528 4.463-3.11 2.048.51 3.646 2.534 2.022 6.51-1.631 3.967-7.002 6.991-7.002 6.991s1.447-1.042 1.302-3.856m-15.122 30.812c.025-4.539-2.12-5.545-.604-10.546 1.215-4.085 4.784-5.408 7.453-4.569 3.237 1.027 5.6 4.442 2.604 10.648-3.012 6.215-11.909 10.504-11.909 10.504s2.415-1.516 2.456-6.037m-22.798 5.849s2.673.155 5.133-3.27c2.485-3.436 1.399-5.353 5.258-8.355 3.125-2.434 6.551-1.509 8.131.593 1.917 2.531 1.87 6.381-3.769 9.491-2.825 1.543-6.508 1.93-9.487 1.93-2.987 0-5.266-.389-5.266-.389m.59-20.642s2.47 1.035 5.957-1.349c3.483-2.402 3.114-4.579 7.747-6.098 3.765-1.24 6.673.774 7.465 3.28.948 3.02-.39 6.648-6.745 7.68-.634.1-1.285.143-1.942.143-5.947 0-12.482-3.656-12.482-3.656m161.745-167.81c-5.846-2.679-8.385-.52-13.962-5.385-4.557-3.957-4.173-9.335-1.512-12.308 3.212-3.556 8.974-4.604 15.238 2.88 6.24 7.53 6.583 21.515 6.583 21.515s-.528-4.02-6.347-6.702m-7.006 24.296c-2.991-5.198-6.087-4.934-7.708-11.676-1.317-5.46 1.888-9.324 5.516-10.146 4.387-1.005 9.335 1.331 10.033 10.417.684 9.12-6.629 19.951-6.629 19.951s1.743-3.353-1.212-8.546m-23.333-12.769c-1.056-5.913-4.083-6.698-3.338-13.584.614-5.58 4.915-8.138 8.611-7.697 4.457.543 8.356 4.405 5.95 13.194-2.427 8.786-12.956 16.551-12.956 16.551s2.789-2.589 1.733-8.464m-45.682 26.143c.376-4.738-1.783-5.967.191-11.082 1.592-4.177 5.423-5.28 8.164-4.19 3.299 1.326 5.505 5.073 1.881 11.33-3.631 6.268-13.285 10.077-13.285 10.077s2.659-1.403 3.049-6.135m20.859-23.035c-3.78-.04-5.769-2.764-5.707-5.249.089-3.009 2.416-5.852 8.437-4.818 6.022 1.057 11.864 7.59 11.864 7.59s-1.888-1.683-5.754-.615c-3.814 1.08-4.197 3.093-8.64 3.093h-.2m15.35 11.324c-3.534-1.267-4.908.12-8.402-2.436-2.84-2.075-2.886-5.225-1.48-7.085 1.69-2.239 4.981-3.139 9.003.912 4.022 4.065 4.93 12.193 4.93 12.193s-.525-2.312-4.051-3.584m-16.298 3.382c-2.893-2.385-4.658-1.545-7.1-5.119-1.974-2.908-.966-5.877.98-7.169 2.348-1.54 5.766-1.287 8.189 3.877 2.409 5.18.543 13.145.543 13.145s.282-2.359-2.612-4.735m-23.771-9.328c-5.407-.955-10.63-6.836-10.63-6.836s1.686 1.526 5.162.571c3.472-.962 3.775-2.814 7.932-2.755 3.385.047 5.168 2.487 5.104 4.723-.069 2.301-1.607 4.496-5.427 4.496-.647 0-1.359-.063-2.141-.199m-10.513-11.487c-3.6-3.653-4.392-10.938-4.392-10.938s.474 2.07 3.625 3.216c3.161 1.143 4.404-.098 7.523 2.202 2.55 1.867 2.586 4.685 1.327 6.351-.759 1.006-1.874 1.708-3.248 1.71-1.384 0-3.029-.713-4.835-2.54m11.982-3.181c-2.148-4.647-.46-11.787-.46-11.787s-.256 2.108 2.334 4.25c2.596 2.151 4.173 1.388 6.355 4.604 1.761 2.612.849 5.278-.89 6.423-.703.46-1.51.74-2.353.74-1.696 0-3.541-1.134-4.986-4.23m-87.078 94.093c1.455-4.52-.36-6.22 2.743-10.745 2.506-3.696 6.492-3.884 8.904-2.192 2.905 2.051 4.189 6.2-.774 11.455-4.98 5.266-15.248 6.75-15.248 6.75s2.911-.753 4.375-5.268m34.922-18.587c-4.018.174-4.825 2.098-9.32.97-3.668-.907-4.981-4.014-4.344-6.42.784-2.904 3.7-5.136 9.321-2.74 5.613 2.414 9.794 10.115 9.794 10.115s-1.447-2.073-5.451-1.925m3.013 15.528c-3.147-2.047-4.803-1.012-7.614-4.3-2.292-2.677-1.605-5.755.192-7.238 2.156-1.793 5.562-1.91 8.551 2.958 2.976 4.883 1.985 13 1.985 13s.026-2.369-3.114-4.42m-16.634-.462c-2.271-2.98-4.181-2.576-5.737-6.613-1.247-3.284.416-5.946 2.605-6.749 2.644-.966 5.91.073 7.078 5.658 1.15 5.591-2.503 12.911-2.503 12.911s.821-2.227-1.443-5.207m-20.993-14.552c-5.038-2.173-8.759-9.096-8.759-9.096s1.279 1.866 4.879 1.743c3.606-.14 4.328-1.87 8.355-.857 3.291.825 4.459 3.606 3.881 5.77-.491 1.828-1.932 3.357-4.49 3.357-1.084 0-2.368-.274-3.866-.917m-7.584-13.596c-2.655-4.387-1.751-11.66-1.751-11.66s-.018 2.126 2.785 3.97c2.814 1.835 4.311.92 6.819 3.88 2.043 2.393 1.431 5.141-.175 6.48-.752.622-1.67 1.018-2.667 1.018-1.587 0-3.374-1.002-5.011-3.688m12.395-.338c-1.02-5.015 2.271-11.576 2.271-11.576s-.741 1.99 1.288 4.674c2.025 2.687 3.743 2.314 5.122 5.942 1.117 2.948-.384 5.335-2.344 6.051-.5.18-1.023.28-1.549.28-1.973 0-3.968-1.417-4.788-5.372" fill="maroon"/><g id="sss" clip-path="url(#m)" transform="translate(22.625 62.902)" fill="maroon"><path d="M386.166 518.735l.901-1.352.6.437c.399.276.96.707 1.646 1.282 1.38 1.143 3.214 2.905 5.291 5.079 2.096 2.152 4.456 4.732 7.362 7.01 1.452 1.129 3.042 2.19 4.799 2.97 1.782.756 3.64 1.449 5.568 1.887 1.912.509 3.886.735 5.827.917 1.947.1 3.875.127 5.734-.035 3.72-.274 7.152-.997 10.033-1.803a71.786 71.786 0 0 0 6.857-2.321l2.541-1.052-2.514 1.116a72.008 72.008 0 0 1-6.813 2.5c-2.871.884-6.305 1.7-10.061 2.072-1.875.21-3.831.235-5.816.183-1.978-.134-4-.315-5.972-.785-1.987-.401-3.91-1.061-5.769-1.795-1.867-.774-3.554-1.84-5.087-2.971-3.066-2.282-5.52-4.84-7.664-6.93-2.126-2.115-3.951-3.778-5.298-4.837a22.767 22.767 0 0 0-1.591-1.176l-.574-.396"/></g><path  d="M622.95 585.59c1.642-4.929 3.089-11.75 3.335-18.514.21-6.778-1.02-13.375-3.148-17.578-.462-1.078-.976-2.007-1.511-2.77-.491-.797-.926-1.48-1.381-1.96-.832-1.014-1.31-1.593-1.31-1.593l5.816-4.655s.521.843 1.439 2.32c.501.707.941 1.66 1.426 2.747.535 1.072 1.013 2.315 1.41 3.705 1.867 5.508 2.148 13.078.962 20.174-1.229 7.111-3.645 13.81-5.96 18.563-2.264 4.774-4.232 7.674-4.232 7.674s1.562-3.154 3.154-8.113M332.845 744.296c-3.964-5.19-7.285-4.463-9.983-11.502-2.202-5.736.702-10.387 4.499-11.78 4.601-1.674 10.295.127 12.346 9.85 2.035 9.743-4.327 22.5-4.327 22.5s1.421-3.87-2.535-9.068m-7.223-31.278c-.395-3.375 1.725-6.937 8.634-6.772 6.915.181 14.521 6.518 14.521 6.518s-2.39-1.58-6.535.265c-4.149 1.855-4.181 4.214-9.375 4.915-.386.052-.76.077-1.12.077-3.579 0-5.819-2.463-6.125-5.003m-10.749-.611c-2.102-4.626-.352-11.66-.352-11.66s-.278 2.075 2.265 4.22c2.55 2.137 4.12 1.403 6.243 4.607 1.732 2.604.81 5.23-.919 6.348-.691.44-1.481.71-2.303.71-1.688 0-3.517-1.13-4.934-4.225" fill="maroon"/><a transform="translate(22.625 62.902)" fill="url(#n)"><path d="M279.165 673.289c1.855-5.812-.47-7.961 3.469-13.799 3.211-4.737 8.308-5.006 11.418-2.835 3.751 2.622 5.415 7.936-.94 14.699-6.369 6.764-19.531 8.727-19.531 8.727s3.725-.987 5.584-6.792" fill="maroon"/></a><path d="M310.247 748.131c1.143-3.57-.29-4.894 2.133-8.479 1.975-2.915 5.107-3.074 7.014-1.743 2.307 1.61 3.331 4.876-.579 9.032-3.91 4.16-11.998 5.364-11.998 5.364s2.291-.608 3.43-4.174m-10.139-36.3c-3.619-4.416-3.768-12.594-3.768-12.594s.307 2.352 3.692 3.943c3.4 1.598 4.894.347 8.135 3.211 2.637 2.337 2.39 5.466.824 7.184-.861.944-2.028 1.581-3.384 1.581-1.627 0-3.527-.918-5.499-3.325m23.401-7.508c-1.971-2-2.383-5.404 2.214-8.77 4.608-3.384 12.779-3.094 12.779-3.094s-2.366.181-4.131 3.476c-1.779 3.31-.607 4.873-3.645 7.953-1.241 1.256-2.642 1.78-3.937 1.78-1.286 0-2.466-.518-3.28-1.345m69.912 32.237c-3.248-.426-4.684-2.976-4.366-5.103.388-2.59 2.681-4.796 7.756-3.277 5.081 1.534 9.436 7.762 9.436 7.762s-1.45-1.65-4.89-1.129c-2.993.466-3.77 1.85-6.537 1.85-.416 0-.877-.032-1.399-.103m12.041 11.343c-2.907-1.458-4.236-.402-6.981-2.97-2.231-2.084-1.935-4.792-.542-6.25 1.692-1.76 4.623-2.19 7.66 1.715 3.039 3.92 2.981 11.01 2.981 11.01s-.21-2.04-3.118-3.505m-14.384 1.218c-2.239-2.358-3.845-1.815-5.57-5.139-1.403-2.709-.228-5.162 1.58-6.073 2.181-1.082 5.097-.514 6.648 4.188 1.538 4.71-.901 11.376-.901 11.376s.488-2-1.757-4.352m-46.575-91.919c-1.306-2.872-2.945-2.883-3.451-6.479-.412-2.929 1.443-4.795 3.378-5.045 2.329-.297 4.818 1.165 4.742 5.946-.094 4.79-4.452 10.098-4.452 10.098s1.085-1.663-.217-4.52m-10.375 6.763c.558-2.886-.679-3.776.876-6.792 1.274-2.456 3.697-2.865 5.303-1.996 1.953 1.034 3.034 3.475.387 7.066-2.662 3.61-8.84 5.296-8.84 5.296s1.718-.688 2.274-3.574m-7.916-9.621s1.862-.06 3.349-2.589c1.49-2.517.636-3.784 3.107-6.099 2.018-1.877 4.43-1.453 5.66-.108 1.487 1.635 1.7 4.308-2.018 6.8-2.655 1.782-6.668 2.037-8.745 2.037-.832 0-1.353-.04-1.353-.04m19.336 34.826c-1.176-2.585-2.655-2.6-3.111-5.838-.369-2.636 1.306-4.322 3.045-4.546 2.099-.267 4.337 1.05 4.269 5.357-.083 4.315-4.012 9.1-4.012 9.1s.98-1.5-.191-4.073" fill="maroon"/><path id="ddd" d="M336.198 695.265c.506-2.603-.608-3.402.792-6.119 1.147-2.214 3.331-2.583 4.778-1.8 1.758.932 2.731 3.131.343 6.37-2.397 3.25-7.96 4.77-7.96 4.77s1.548-.623 2.047-3.22m-7.129-8.666s1.678-.062 3.016-2.337c1.346-2.267.576-3.41 2.799-5.497 1.82-1.686 3.994-1.31 5.101-.098 1.338 1.472 1.53 3.881-1.819 6.13-2.399 1.61-6.026 1.837-7.893 1.837-.741 0-1.204-.036-1.204-.036m270.748-99.011c-6.895-1.552-8.11-5.597-6.873-8.844 1.028-2.694 4.354-4.709 8.391-3.096 4.978 2 4.428 4.34 8.08 7.205 3.653 2.854 6.41 1.877 6.41 1.877s-6.603 3.186-12.814 3.186c-1.09 0-2.167-.098-3.194-.328m-14.577 7.422c.984-2.898-.159-4.009 1.881-6.89 1.656-2.352 4.225-2.432 5.765-1.314 1.859 1.364 2.633 4.047-.629 7.38-3.27 3.326-9.91 4.18-9.91 4.18s1.887-.467 2.893-3.357m24.074 4.322c-1.522-.196-2.617-.049-3.63.098-1.618.233-3.03.467-5.644-.684-3.465-1.518-4.31-4.839-3.328-7.14 1.158-2.788 4.34-4.528 9.513-1.193 5.173 3.35 8.182 11.733 8.182 11.733s-1.129-2.315-5.093-2.814m19.3-21.875c-3.32-5.339-1.519-8.637 1.317-9.874 2.351-1.027 5.7-.173 7.197 3.39 1.831 4.41.008 5.515.471 9.621.47 4.09 2.807 5.225 2.807 5.225s-8.486-3.03-11.792-8.362m-17.737-4.358s1.482.908 3.934-.257c2.454-1.186 2.446-2.604 5.549-3.11 2.518-.405 4.174 1.164 4.427 2.843.297 2.028-.932 4.191-5.078 4.198h-.012c-4.141 0-8.82-3.674-8.82-3.674m16.21 17.705c-2.148-2.82-3.95-2.387-5.418-6.243-1.2-3.144.384-5.758 2.453-6.568 2.496-1.002 5.584-.072 6.691 5.291 1.1 5.367-2.337 12.504-2.337 12.504s.761-2.163-1.389-4.984m-375.3-92.246s2.651 1.43 6.792-.882c4.141-2.326 3.964-4.803 9.314-6.015 4.354-1.009 7.403 1.563 8.025 4.438.735 3.487-1.139 7.403-8.358 7.885-.277.018-.556.027-.836.027-7.037 0-14.937-5.453-14.937-5.453m45.037 9.223c-3.06-2.6-4.963-1.735-7.49-5.62-2.073-3.16-.926-6.333 1.179-7.66 2.546-1.599 6.199-1.252 8.698 4.321 2.478 5.59.307 14.081.307 14.081s.348-2.507-2.694-5.122m-8.344 13.433c-.918-3.63-2.828-4.004-2.659-8.325.142-3.517 2.735-5.31 5.061-5.18 2.802.152 5.382 2.387 4.257 7.986-1.132 5.602-7.375 10.887-7.375 10.887s1.627-1.725.716-5.368m-11.885-11.642c.365-3.732-1.317-4.73.289-8.749 1.317-3.263 4.344-4.077 6.503-3.176 2.591 1.085 4.283 4.068 1.342 8.955-2.954 4.887-10.615 7.777-10.615 7.777s2.116-1.082 2.481-4.807m-5.498-24.939c-2.22-5.024-.246-12.637-.246-12.637s-.326 2.25 2.402 4.605c2.731 2.347 4.438 1.573 6.705 5.056 1.849 2.838.811 5.674-1.073 6.864-.736.462-1.576.742-2.451.742-1.839 0-3.832-1.238-5.337-4.63m7.494-7.957c-2.524-.138-4.835-2.152-3.812-7.168 1.028-5.032 6.637-9.745 6.637-9.745s-1.458 1.546-.654 4.796c.817 3.267 2.535 3.607 2.365 7.48-.129 3.048-2.299 4.643-4.325 4.643-.07 0-.141-.002-.211-.006m6.695 9.042c-2.325-.987-3.834-3.66-1.193-8.039 2.666-4.373 9.534-6.942 9.534-6.942s-1.896.955-2.231 4.301c-.337 3.353 1.171 4.242-.279 7.845-.893 2.186-2.646 3.144-4.278 3.144a3.993 3.993 0 0 1-1.553-.309m-44.426 64.135c1.356-4.554-.495-6.206 2.503-10.8 2.431-3.754 6.405-4.029 8.854-2.395 2.958 1.99 4.33 6.106-.518 11.474-4.868 5.374-15.1 7.077-15.1 7.077s2.89-.812 4.261-5.356m37.858-3.896c-3.187-1.97-4.825-.91-7.704-4.133-2.348-2.626-1.732-5.712.033-7.238 2.116-1.84 5.523-2.029 8.612 2.774 3.081 4.815 2.278 12.95 2.278 12.95s-.036-2.37-3.219-4.353m-16.644-.096c-2.334-2.93-4.237-2.482-5.871-6.485-1.324-3.259.278-5.95 2.451-6.804 2.616-1.02 5.911-.058 7.202 5.501 1.274 5.566-2.216 12.967-2.216 12.967s.766-2.25-1.566-5.18m-21.297-14.084c-5.086-2.066-8.963-8.909-8.963-8.909s1.324 1.841 4.922 1.635c3.595-.213 4.283-1.956 8.334-1.03 3.302.752 4.536 3.508 4.008 5.678-.463 1.874-1.916 3.458-4.564 3.46-1.052 0-2.294-.252-3.737-.834m-7.882-13.43c-2.756-4.329-2.011-11.617-2.011-11.617s.029 2.123 2.868 3.902c2.858 1.773 4.333.825 6.902 3.726 2.101 2.362 1.551 5.121-.033 6.49-.756.656-1.694 1.077-2.723 1.077-1.564 0-3.338-.974-5.003-3.578m12.377-.607c-1.125-4.995 2.018-11.62 2.018-11.62s-.694 2.002 1.39 4.64c2.09 2.647 3.793 2.231 5.255 5.826 1.179 2.926-.267 5.34-2.21 6.098a4.555 4.555 0 0 1-1.634.316c-1.945 0-3.924-1.39-4.819-5.26m68.64-165.288s3.147 1.693 8.073-1.057c4.922-2.763 4.709-5.71 11.072-7.146 5.17-1.205 8.803 1.855 9.545 5.277.868 4.137-1.357 8.796-9.936 9.367-.333.022-.67.033-1.005.033-8.364 0-17.75-6.474-17.75-6.474m-93.397 176.996c-3.638-3.089-5.902-2.062-8.912-6.68-2.459-3.752-1.096-7.528 1.404-9.104 3.031-1.907 7.371-1.494 10.341 5.131 2.947 6.645.365 16.744.365 16.744s.409-2.98-3.198-6.09m-9.92 15.964c-1.089-4.312-3.365-4.757-3.162-9.889.166-4.188 3.248-6.316 6.015-6.156 3.328.177 6.391 2.836 5.057 9.491-1.342 6.655-8.764 12.934-8.764 12.934s1.938-2.048.854-6.38m-14.132-13.831c.43-4.442-1.566-5.628.351-10.399 1.559-3.88 5.154-4.85 7.725-3.78 3.078 1.284 5.094 4.84 1.596 10.648-3.516 5.802-12.616 9.238-12.616 9.238s2.517-1.284 2.944-5.707m-6.536-29.652c-2.633-5.968-.289-15.017-.289-15.017s-.391 2.67 2.849 5.476c3.253 2.784 5.285 1.867 7.976 6.004 2.2 3.372.97 6.75-1.284 8.163-.872.548-1.868.881-2.906.881-2.184 0-4.554-1.47-6.346-5.507m8.908-9.455c-2.998-.166-5.746-2.553-4.528-8.524 1.219-5.979 7.889-11.578 7.889-11.578s-1.733 1.834-.774 5.7c.965 3.881 3.009 4.286 2.807 8.89-.154 3.623-2.733 5.52-5.134 5.52-.087 0-.174-.003-.26-.008m7.962 10.757c-2.761-1.186-4.558-4.358-1.414-9.559 3.16-5.205 11.32-8.258 11.32-8.258s-2.246 1.141-2.644 5.115c-.402 3.985 1.396 5.034-.34 9.32-1.057 2.607-3.148 3.742-5.088 3.742a4.775 4.775 0 0 1-1.834-.36m143.551-61.526s3.147 1.692 8.077-1.057c4.923-2.764 4.706-5.71 11.067-7.147 5.173-1.205 8.804 1.856 9.542 5.277.872 4.137-1.353 8.793-9.932 9.368-.333.022-.668.033-1.005.033-8.363 0-17.749-6.474-17.749-6.474m53.541 10.956c-3.638-3.09-5.902-2.062-8.911-6.685-2.456-3.746-1.096-7.523 1.403-9.104 3.031-1.903 7.372-1.49 10.341 5.136 2.948 6.644.365 16.743.365 16.743s.409-2.98-3.198-6.09m-9.917 15.964c-1.092-4.312-3.367-4.756-3.169-9.889.171-4.188 3.253-6.315 6.02-6.159 3.327.181 6.394 2.838 5.056 9.494-1.346 6.655-8.763 12.935-8.763 12.935s1.938-2.049.856-6.38m-14.135-13.832c.431-4.442-1.566-5.628.351-10.403 1.559-3.877 5.158-4.846 7.726-3.775 3.077 1.284 5.093 4.838 1.595 10.647-3.516 5.802-12.616 9.238-12.616 9.238s2.517-1.288 2.944-5.707m-6.531-29.652c-2.634-5.968-.294-15.02-.294-15.02s-.39 2.672 2.85 5.48c3.252 2.785 5.284 1.861 7.975 6 2.2 3.375.97 6.752-1.283 8.163-.872.55-1.868.882-2.906.882-2.184 0-4.553-1.472-6.342-5.505m8.908-9.454c-3.006-.167-5.748-2.557-4.533-8.525 1.219-5.979 7.889-11.58 7.889-11.58s-1.733 1.833-.774 5.703c.966 3.881 3.01 4.282 2.807 8.89-.154 3.627-2.735 5.52-5.137 5.52a5.3 5.3 0 0 1-.252-.008m7.957 10.753c-2.76-1.183-4.558-4.354-1.414-9.56 3.161-5.2 11.321-8.254 11.321-8.254s-2.246 1.136-2.648 5.115c-.401 3.982 1.4 5.035-.337 9.321-1.056 2.604-3.145 3.741-5.085 3.741-.643 0-1.27-.125-1.837-.363m-78.751 44.621c-1.852-3.877-4.102-3.856-4.884-8.766-.661-3.993 1.849-6.605 4.49-7.004 3.186-.454 6.615 1.47 6.629 8.02.007 6.565-5.827 13.946-5.827 13.946s1.443-2.314-.408-6.196m-.996-29.047c-1.298-2.398-.77-5.68 4.413-7.609 5.198-1.918 12.749.542 12.749.542s-2.249-.452-4.788 2.137c-2.528 2.62-1.859 4.38-5.516 6.446-.981.554-1.944.793-2.832.793-1.806 0-3.303-.985-4.026-2.309m16.356 5.314c-3.182-.333-4.644-2.778-4.39-4.876.3-2.525 2.469-4.723 7.468-3.378 4.995 1.353 9.408 7.303 9.408 7.303s-1.468-1.577-4.813-.966c-2.99.55-3.659 1.98-6.559 1.98-.338 0-.707-.02-1.114-.063m-3.544 8.152c-1.308-.214-2.256-.124-3.137-.033-1.381.141-2.594.282-4.755-.748-2.872-1.374-3.429-4.163-2.492-6.06 1.128-2.277 3.931-3.638 8.174-.689 4.247 2.96 6.402 10.047 6.402 10.047s-.85-1.978-4.192-2.517m-34.304 2.987s2.013.427 4.305-1.902c2.282-2.333 1.682-3.92 4.959-5.766 2.68-1.504 5.183-.404 6.149 1.383 1.154 2.133.672 5.092-3.972 6.8-1.298.475-2.758.647-4.189.648-3.722 0-7.252-1.163-7.252-1.163m-2.021-3.696c-4.485-1.222-8.417-6.568-8.417-6.568s1.311 1.407 4.301.868c3.002-.543 3.403-2.083 6.897-1.696 2.843.303 4.153 2.5 3.925 4.373-.214 1.792-1.475 3.394-4.197 3.395-.729 0-1.562-.115-2.509-.372m7.935-7.943c-3.801-2.662-5.714-9.017-5.714-9.017s.753 1.766 3.755 2.265c1.173.195 2.023.114 2.813.033 1.236-.127 2.321-.253 4.257.682 2.572 1.242 3.068 3.745 2.232 5.43-.609 1.211-1.735 2.128-3.34 2.128-1.109 0-2.447-.438-4.003-1.52m248.083 251.729c-1.851-3.874-4.101-3.856-4.882-8.765-.665-3.993 1.845-6.6 4.486-7.002 3.19-.459 6.618 1.468 6.633 8.02.007 6.56-5.823 13.946-5.823 13.946s1.44-2.315-.414-6.199m-.99-29.044c-1.303-2.402-.774-5.682 4.412-7.61 5.195-1.917 12.747.542 12.747.542s-2.25-.455-4.79 2.134c-2.531 2.62-1.857 4.384-5.519 6.446-.981.556-1.944.796-2.832.796-1.802 0-3.296-.986-4.018-2.308m16.348 5.312c-3.176-.335-4.637-2.78-4.383-4.875.296-2.524 2.467-4.727 7.466-3.38 4.998 1.351 9.404 7.305 9.404 7.305s-1.463-1.578-4.811-.969c-2.985.553-3.658 1.982-6.557 1.982-.34 0-.711-.02-1.119-.063m-3.537 8.15c-1.31-.214-2.261-.124-3.141-.034-1.381.142-2.592.283-4.751-.747-2.872-1.375-3.428-4.16-2.496-6.058 1.129-2.276 3.936-3.636 8.175-.688 4.246 2.955 6.402 10.044 6.402 10.044s-.847-1.974-4.189-2.517m-34.302 2.991s2.01.423 4.303-1.907c2.279-2.329 1.679-3.92 4.956-5.764 2.675-1.505 5.179-.402 6.148 1.381 1.151 2.141.674 5.093-3.971 6.803-1.298.476-2.757.647-4.188.647-3.72 0-7.248-1.16-7.248-1.16m-2.026-3.7c-4.485-1.223-8.42-6.568-8.42-6.568s1.317 1.406 4.304.867c3.001-.538 3.407-2.079 6.893-1.692 2.851.303 4.161 2.496 3.928 4.372-.216 1.79-1.477 3.393-4.197 3.394-.729 0-1.562-.116-2.508-.373m7.936-7.943c-3.798-2.655-5.715-9.013-5.715-9.013s.751 1.761 3.754 2.264c1.17.194 2.019.113 2.808.032 1.237-.128 2.323-.255 4.26.684 2.567 1.237 3.067 3.74 2.234 5.433-.611 1.205-1.738 2.121-3.342 2.121-1.109 0-2.447-.438-3.999-1.52m-23.923 56.835c-1.57-3.29-3.487-3.273-4.145-7.439-.565-3.397 1.563-5.61 3.813-5.947 2.698-.388 5.613 1.244 5.619 6.811.016 5.57-4.94 11.841-4.94 11.841s1.223-1.967-.347-5.266m-.846-24.664c-1.1-2.036-.658-4.82 3.747-6.459 4.412-1.632 10.821.456 10.821.456s-1.902-.38-4.065 1.818c-2.148 2.222-1.57 3.72-4.68 5.47-.836.473-1.655.676-2.41.676-1.531 0-2.798-.837-3.413-1.96m13.889 4.509c-2.706-.278-3.943-2.358-3.726-4.137.253-2.14 2.09-4.015 6.337-2.872 4.246 1.15 7.986 6.2 7.986 6.2s-1.244-1.339-4.087-.818c-2.531.47-3.105 1.68-5.562 1.68a8.646 8.646 0 0 1-.948-.053m-3.009 6.924c-1.113-.184-1.921-.107-2.671-.029-1.17.122-2.202.242-4.035-.63-2.439-1.17-2.909-3.54-2.112-5.15.961-1.932 3.341-3.086 6.943-.583 3.603 2.51 5.44 8.532 5.44 8.532s-.73-1.685-3.565-2.14m-29.131 2.538s1.707.36 3.652-1.613c1.939-1.982 1.433-3.334 4.218-4.9 2.272-1.277 4.399-.34 5.223 1.175.976 1.815.564 4.322-3.379 5.773-1.101.404-2.341.55-3.557.55-3.159 0-6.157-.985-6.157-.985m-1.715-3.138c-3.812-1.04-7.148-5.578-7.148-5.578s1.115 1.193 3.654.738c2.547-.464 2.887-1.766 5.852-1.44 2.423.253 3.531 2.124 3.336 3.711-.183 1.524-1.253 2.883-3.564 2.883-.619 0-1.326-.097-2.13-.315m6.742-6.746c-3.226-2.256-4.861-7.657-4.861-7.657s.644 1.498 3.197 1.924c.995.167 1.716.098 2.385.03 1.049-.108 1.969-.215 3.613.582 2.184 1.052 2.603 3.176 1.895 4.608-.518 1.027-1.473 1.804-2.833 1.804-.941 0-2.076-.372-3.396-1.29M455.927 474.7c-4.47-3.446-7.09-2.094-10.907-7.385-3.135-4.29-1.747-8.829 1.118-10.848 3.467-2.422 8.617-2.195 12.502 5.465 3.892 7.69 1.425 19.781 1.425 19.781s.325-3.562-4.138-7.013m-18.343-33.445c-2.934-2.043-4.261-6.204.673-11.524 4.955-5.32 15.262-6.897 15.262-6.897s-2.901.792-4.35 5.332c-1.418 4.556.414 6.235-2.658 10.81-1.543 2.314-3.67 3.28-5.642 3.28a5.795 5.795 0 0 1-3.285-1m14.278-6.558c-1.143-3.137.109-6.999 6.749-8.374 6.647-1.37 15.336 2.991 15.336 2.991s-2.641-.976-6.2 1.715c-3.544 2.694-3.066 4.96-7.863 6.785-.926.351-1.81.508-2.632.508-2.658 0-4.672-1.637-5.39-3.625m-7.518 12.878c-.018-3.33 2.46-6.58 9.168-5.638 6.719.96 13.447 7.986 13.447 7.986s-2.17-1.808-6.401-.473c-4.262 1.348-4.566 3.65-9.709 3.758l-.181.002c-4.065 0-6.302-2.893-6.324-5.635m-18.291 20.892c1.288-4.082-.354-5.587 2.395-9.686 2.246-3.346 5.831-3.54 8.019-2.022 2.626 1.823 3.808 5.563-.634 10.327-4.455 4.755-13.704 6.152-13.704 6.152s2.612-.69 3.924-4.77m-22.219-1.089s2.362.875 5.553-1.519c3.19-2.417 2.755-4.449 7.074-6.07 3.516-1.324 6.344.47 7.183 2.8 1.028 2.824-.097 6.29-6.065 7.508-.803.164-1.639.235-2.483.235-5.444.001-11.262-2.955-11.262-2.955m18.346-11.277c-6.026-.868-12.027-7.184-12.027-7.184s1.924 1.628 5.737.435c3.819-1.193 4.087-3.259 8.706-3.342 3.744-.065 5.805 2.575 5.827 5.042-.004 2.642-1.723 5.201-6.226 5.201-.619 0-1.29-.049-2.017-.152m53.988 69.926c-3.161-2.438-5.021-1.479-7.725-5.227-2.222-3.038-1.232-6.249.794-7.682 2.454-1.715 6.106-1.555 8.855 3.87 2.749 5.448 1.006 14.005 1.006 14.005s.231-2.52-2.93-4.966m-12.992-23.677c-2.076-1.446-3.009-4.39.477-8.163 3.508-3.765 10.808-4.883 10.808-4.883s-2.055.561-3.082 3.773c-.999 3.23.297 4.42-1.881 7.657-1.093 1.641-2.596 2.323-3.992 2.323a4.134 4.134 0 0 1-2.33-.707m10.113-4.647c-.803-2.214.079-4.95 4.781-5.928 4.702-.965 10.858 2.115 10.858 2.115s-1.873-.686-4.391 1.216c-2.51 1.91-2.17 3.516-5.563 4.811a5.257 5.257 0 0 1-1.86.357c-1.887 0-3.316-1.16-3.825-2.57m-5.324 9.117c-.015-2.355 1.743-4.655 6.496-3.989 4.76.676 9.519 5.656 9.519 5.656s-1.533-1.28-4.536-.336c-3.016.951-3.233 2.583-6.872 2.658l-.12.001c-2.882 0-4.466-2.043-4.487-3.99m-12.957 14.796c.919-2.893-.245-3.964 1.701-6.865 1.599-2.36 4.13-2.503 5.678-1.432 1.859 1.296 2.698 3.947-.449 7.317-3.153 3.368-9.7 4.36-9.7 4.36s1.852-.493 2.77-3.38m-15.728-.77s1.675.62 3.932-1.078c2.261-1.71 1.953-3.15 5.014-4.3 2.486-.934 4.49.34 5.09 1.986.723 2-.073 4.456-4.303 5.313a8.794 8.794 0 0 1-1.764.167c-3.853 0-7.969-2.088-7.969-2.088m12.994-7.988c-4.266-.616-8.516-5.083-8.516-5.083s1.364 1.15 4.062.304c2.704-.843 2.892-2.304 6.162-2.363 2.655-.047 4.109 1.82 4.13 3.567-.007 1.872-1.219 3.682-4.403 3.682-.44 0-.917-.034-1.435-.108m91.313-73.301c-3.342-2.567-5.295-1.558-8.145-5.51-2.343-3.206-1.309-6.596.833-8.104 2.588-1.807 6.437-1.642 9.337 4.08 2.908 5.744 1.064 14.776 1.064 14.776s.246-2.659-3.089-5.242m-13.7-24.977c-2.193-1.528-3.184-4.63.499-8.609 3.703-3.972 11.4-5.15 11.4-5.15s-2.17.59-3.248 3.981c-1.064 3.405.311 4.656-1.982 8.077-1.157 1.728-2.747 2.45-4.219 2.45a4.306 4.306 0 0 1-2.45-.749m10.662-4.901c-.853-2.34.08-5.227 5.042-6.25 4.962-1.024 11.458 2.231 11.458 2.231s-1.974-.727-4.636 1.28c-2.648 2.011-2.286 3.704-5.867 5.071a5.55 5.55 0 0 1-1.968.38c-1.987 0-3.493-1.224-4.029-2.713m-5.613 9.621c-.022-2.485 1.837-4.915 6.843-4.206 5.028.716 10.048 5.967 10.048 5.967s-1.621-1.352-4.782-.36c-3.182 1.005-3.415 2.727-7.248 2.806l-.136.001c-3.045 0-4.711-2.154-4.725-4.208m-13.665 15.611c.962-3.057-.268-4.178 1.786-7.237 1.679-2.503 4.363-2.648 5.99-1.516 1.967 1.363 2.85 4.16-.47 7.72-3.328 3.554-10.237 4.591-10.237 4.591s1.947-.516 2.931-3.558m-16.594-.814s1.765.651 4.144-1.136c2.38-1.808 2.062-3.323 5.289-4.536 2.625-.987 4.737.351 5.366 2.091.76 2.112-.079 4.702-4.535 5.607a9.293 9.293 0 0 1-1.859.176c-4.066.001-8.405-2.202-8.405-2.202m13.699-8.427c-4.498-.652-8.983-5.364-8.983-5.364s1.439 1.215 4.29.322c2.849-.89 3.052-2.43 6.495-2.492 2.799-.047 4.34 1.92 4.355 3.765 0 1.971-1.286 3.881-4.649 3.882-.463 0-.964-.036-1.508-.114m133.206 5.047c-3.849-2.974-6.12-1.798-9.411-6.374-2.713-3.706-1.512-7.628.962-9.37 2.994-2.092 7.45-1.9 10.8 4.722 3.363 6.633 1.222 17.083 1.222 17.083s.29-3.074-3.573-6.06m-15.835-28.882c-2.539-1.766-3.682-5.358.586-9.954 4.275-4.594 13.18-5.962 13.18-5.962s-2.51.688-3.762 4.61c-1.222 3.935.362 5.385-2.293 9.338-1.332 1.998-3.169 2.831-4.873 2.831a5.015 5.015 0 0 1-2.838-.863m12.333-5.672c-.99-2.698.087-6.04 5.823-7.227 5.745-1.186 13.253 2.586 13.253 2.586s-2.278-.843-5.36 1.48c-3.06 2.322-2.641 4.28-6.785 5.86a6.403 6.403 0 0 1-2.275.44c-2.299 0-4.036-1.42-4.656-3.139m-6.495 11.127c-.015-2.87 2.119-5.684 7.913-4.869 5.816.831 11.618 6.904 11.618 6.904s-1.867-1.563-5.527-.416c-3.682 1.168-3.942 3.157-8.384 3.244a8.219 8.219 0 0 1-.157.002c-3.511 0-5.45-2.492-5.463-4.866m-15.799 18.056c1.113-3.53-.305-4.832 2.062-8.37 1.945-2.89 5.048-3.067 6.929-1.755 2.272 1.582 3.292 4.807-.542 8.923-3.856 4.117-11.835 5.316-11.835 5.316s2.25-.596 3.386-4.114m-19.192-.945s2.04.756 4.797-1.32c2.755-2.083 2.379-3.837 6.112-5.238 3.038-1.138 5.477.406 6.199 2.42.89 2.442-.087 5.43-5.237 6.486a10.74 10.74 0 0 1-2.14.202c-4.702 0-9.731-2.55-9.731-2.55m15.842-9.744c-5.201-.748-10.38-6.199-10.38-6.199s1.656 1.4 4.948.373c3.306-1.027 3.537-2.815 7.523-2.883 3.234-.06 5.021 2.217 5.035 4.351-.007 2.283-1.496 4.488-5.385 4.488a12.42 12.42 0 0 1-1.741-.13m-24.262 12.135c-3.074-2.373-4.883-1.44-7.501-5.085-2.17-2.959-1.208-6.077.759-7.469 2.387-1.668 5.939-1.512 8.608 3.764 2.684 5.29.984 13.618.984 13.618s.232-2.452-2.85-4.828m-12.623-23.026c-2.025-1.41-2.937-4.27.462-7.934 3.416-3.669 10.511-4.753 10.511-4.753s-2.004.545-3.002 3.671c-.977 3.136.29 4.292-1.83 7.447-1.062 1.593-2.528 2.258-3.885 2.258-.832 0-1.624-.25-2.256-.689m9.823-4.52c-.781-2.157.08-4.814 4.644-5.766 4.587-.94 10.569 2.062 10.569 2.062s-1.815-.673-4.274 1.183c-2.439 1.855-2.106 3.411-5.412 4.673a5.102 5.102 0 0 1-1.806.347c-1.833 0-3.223-1.128-3.721-2.499m-5.172 8.868c-.006-2.289 1.686-4.532 6.309-3.884 4.637.665 9.258 5.508 9.258 5.508s-1.489-1.244-4.404-.332c-2.938.932-3.141 2.516-6.685 2.59h-.121c-2.802 0-4.342-1.992-4.357-3.882m-12.594 14.391c.89-2.817-.246-3.85 1.642-6.672 1.548-2.304 4.023-2.442 5.528-1.397 1.807 1.26 2.625 3.834-.435 7.112-3.075 3.284-9.433 4.24-9.433 4.24s1.794-.476 2.698-3.283m-15.3-.751s1.628.6 3.82-1.053c2.192-1.66 1.902-3.059 4.876-4.174 2.423-.91 4.369.323 4.948 1.924.701 1.953-.073 4.334-4.181 5.176a8.553 8.553 0 0 1-1.709.162c-3.747 0-7.754-2.035-7.754-2.035m12.631-7.766c-4.145-.6-8.276-4.944-8.276-4.944s1.316 1.118 3.942.297c2.635-.822 2.822-2.247 5.998-2.298 2.575-.05 3.999 1.77 4.008 3.47 0 1.818-1.181 3.578-4.284 3.578-.426 0-.888-.033-1.388-.103m-384.47 40.321s3.146 1.692 8.076-1.055c4.92-2.764 4.706-5.708 11.068-7.148 5.176-1.2 8.807 1.856 9.545 5.28.865 4.138-1.36 8.79-9.94 9.368a15 15 0 0 1-.997.032c-8.359.001-17.752-6.477-17.752-6.477m53.537 10.956c-3.639-3.09-5.899-2.058-8.908-6.68-2.456-3.75-1.1-7.524 1.399-9.108 3.035-1.9 7.376-1.49 10.345 5.136 2.951 6.648.369 16.746.369 16.746s.405-2.98-3.205-6.094m-9.913 15.968c-1.093-4.315-3.368-4.759-3.166-9.888.17-4.189 3.248-6.315 6.016-6.16 3.324.178 6.394 2.84 5.052 9.49-1.341 6.66-8.757 12.94-8.757 12.94s1.933-2.052.855-6.382m-14.136-13.831c.431-4.442-1.566-5.628.348-10.403 1.558-3.88 5.161-4.845 7.729-3.779 3.074 1.288 5.096 4.841 1.592 10.65-3.512 5.803-12.613 9.24-12.613 9.24s2.514-1.288 2.944-5.708m-6.535-29.651c-2.633-5.968-.293-15.02-.293-15.02s-.387 2.672 2.854 5.475c3.248 2.79 5.28 1.865 7.971 6.001 2.2 3.378.977 6.755-1.277 8.167-.874.547-1.872.88-2.911.88-2.186 0-4.555-1.47-6.344-5.504m8.908-9.453c-2.998-.167-5.747-2.56-4.532-8.529 1.227-5.979 7.889-11.578 7.889-11.578s-1.733 1.834-.774 5.704c.965 3.881 3.013 4.282 2.806 8.891-.15 3.622-2.735 5.52-5.137 5.52a5.3 5.3 0 0 1-.252-.008m7.957 10.748c-2.759-1.178-4.553-4.354-1.41-9.555 3.157-5.2 11.32-8.254 11.32-8.254s-2.245 1.136-2.643 5.114c-.405 3.98 1.392 5.035-.344 9.318-1.053 2.606-3.142 3.741-5.082 3.741a4.76 4.76 0 0 1-1.841-.364m161.995 144.192c5.393-6.105 10.174-5.092 12.778-2.033 2.149 2.525 2.337 7.017-1.551 10.21-4.763 3.922-6.836 2.07-11.766 4.167-4.919 2.102-5.461 5.437-5.461 5.437s.614-11.654 6-17.78m-1.548 23.068c.796-7.567 4.966-9.375 8.612-8.464 3.002.767 5.577 4.073 4.352 8.598-1.505 5.574-4.092 5.277-6.688 9.548-2.612 4.257-1.216 7.097-1.216 7.097s-5.841-9.206-5.06-16.779m16.87-7.412c-1.799-7.389 1.53-10.51 5.266-10.86 3.095-.294 6.619 1.96 6.994 6.636.446 5.747-2.083 6.348-3.109 11.238-1.021 4.875 1.24 7.09 1.24 7.09s-8.591-6.715-10.391-14.104m-64.638-4.929c-3.249-1.38-4.608-.159-7.759-2.749-2.561-2.102-2.435-5.067-1.02-6.73 1.718-2.016 4.868-2.68 8.424 1.333 3.551 4.045 3.957 11.726 3.957 11.726s-.362-2.198-3.602-3.58m-3.473 13.454c-1.71-2.817-3.418-2.625-4.406-6.293-.81-2.988.89-5.165 2.869-5.67 2.398-.602 5.154.592 5.678 5.58.511 4.991-3.338 11.064-3.338 11.064s.923-1.874-.803-4.68m-13.014-6.648c-.68-3.227-2.35-3.617-2.054-7.407.246-3.09 2.572-4.569 4.615-4.377 2.46.231 4.658 2.286 3.472 7.161-1.186 4.872-6.853 9.304-6.853 9.304s1.493-1.462.82-4.68m114.888 8.129c-4.788-4.015-4.108-7.703-1.815-9.76 1.887-1.697 5.335-1.936 7.859.98 3.106 3.572 1.729 5.2 3.438 8.932 1.714 3.734 4.283 4.08 4.283 4.08s-8.951-.235-13.765-4.232m17.728.71c-5.823-.449-7.292-3.618-6.669-6.428.528-2.318 3.01-4.358 6.504-3.519 4.312 1.042 4.13 3.031 7.464 4.937 3.32 1.917 5.462.785 5.462.785s-6.325 4.254-11.966 4.254c-.267 0-.532-.01-.795-.029M444.63 593.01c-.289-2.366 1.36-5.119 4.94-5.499 4.404-.463 4.91 1.47 8.687 2.152 3.761.684 5.411-1.092 5.411-1.092s-4.978 6.724-10.597 8.257c-1.187.323-2.232.467-3.147.467-3.431 0-5.026-2.03-5.294-4.286" fill="maroon"/></g></svg>